<svg width="18" height="15" viewBox="0 0 18 15" fill="none" xmlns="http://www.w3.org/2000/svg">
<path d="M17.5417 1.7106C16.8824 1.99661 16.1852 2.18568 15.4718 2.27193C16.2244 1.82227 16.7885 1.11487 17.0593 0.280949C16.352 0.702005 15.5777 0.998664 14.7701 1.15803C14.2303 0.572643 13.5114 0.182976 12.7263 0.0501458C11.9412 -0.0826841 11.1342 0.0488363 10.4319 0.42408C9.72952 0.799324 9.17161 1.39707 8.8456 2.12356C8.5196 2.85005 8.44394 3.6642 8.63051 4.43833C7.20036 4.36599 5.80142 3.9936 4.52457 3.34536C3.24773 2.69711 2.12153 1.78751 1.21915 0.675637C0.90264 1.22835 0.736329 1.85428 0.73675 2.4912C0.735628 3.08269 0.880783 3.66528 1.15929 4.1871C1.4378 4.70892 1.84102 5.15377 2.33304 5.48206C1.76116 5.4665 1.2015 5.31304 0.701667 5.03474V5.0786C0.705953 5.90735 0.996362 6.70918 1.52377 7.34846C2.05118 7.98774 2.78321 8.42524 3.59604 8.58693C3.28315 8.68216 2.95829 8.73236 2.63125 8.73604C2.40487 8.73339 2.17905 8.71286 1.9559 8.67464C2.18737 9.38755 2.63531 10.0106 3.23738 10.457C3.83946 10.9035 4.56573 11.1511 5.31513 11.1656C4.04967 12.1613 2.48731 12.7047 0.877084 12.7092C0.583906 12.7102 0.29096 12.6926 0 12.6566C1.64403 13.7181 3.55992 14.2816 5.51686 14.2792C6.8673 14.2932 8.20699 14.038 9.4577 13.5285C10.7084 13.019 11.845 12.2653 12.8012 11.3116C13.7574 10.3579 14.514 9.22316 15.0267 7.97377C15.5394 6.72438 15.7981 5.38534 15.7875 4.03487C15.7875 3.88576 15.7875 3.72789 15.7875 3.57001C16.4758 3.05675 17.0693 2.42755 17.5417 1.7106Z" fill="#B20FB0"/>
</svg>
